<?xml version="1.0" encoding="UTF-8" standalone="no"?>
<svg
   xmlns:dc="http://purl.org/dc/elements/1.1/"
   xmlns:cc="http://creativecommons.org/ns#"
   xmlns:rdf="http://www.w3.org/1999/02/22-rdf-syntax-ns#"
   xmlns:svg="http://www.w3.org/2000/svg"
   xmlns="http://www.w3.org/2000/svg"
   xmlns:sodipodi="http://sodipodi.sourceforge.net/DTD/sodipodi-0.dtd"
   xmlns:inkscape="http://www.inkscape.org/namespaces/inkscape"
   width="700"
   height="700"
   viewBox="0 0 700 700"
   version="1.1"
   id="svg32"
   sodipodi:docname="cacau-show-logo.svg"
   style="fill:none"
   inkscape:export-filename="C:\Users\suitedoalex\sites\cacau-show-logo-0.png"
   inkscape:export-xdpi="561.73712"
   inkscape:export-ydpi="561.73712"
   inkscape:version="0.92.4 (5da689c313, 2019-01-14)">
  <metadata
     id="metadata38">
    <rdf:RDF>
      <cc:Work
         rdf:about="">
        <dc:format>image/svg+xml</dc:format>
        <dc:type
           rdf:resource="http://purl.org/dc/dcmitype/StillImage" />
        <dc:title></dc:title>
      </cc:Work>
    </rdf:RDF>
  </metadata>
  <defs
     id="defs36" />
  <sodipodi:namedview
     pagecolor="#ffffff"
     bordercolor="#666666"
     borderopacity="1"
     objecttolerance="10"
     gridtolerance="10"
     guidetolerance="10"
     inkscape:pageopacity="0"
     inkscape:pageshadow="2"
     inkscape:window-width="1920"
     inkscape:window-height="1017"
     id="namedview34"
     showgrid="false"
     inkscape:zoom="0.62264681"
     inkscape:cx="390.90562"
     inkscape:cy="276.48993"
     inkscape:window-x="-8"
     inkscape:window-y="-8"
     inkscape:window-maximized="1"
     inkscape:current-layer="svg32" />
  <path
     d="m 177.17326,400.41825 c -10.84505,11.8959 -25.53023,19.20934 -41.71513,19.20934 -33.39184,0 -60.471261,-31.13953 -60.471261,-69.54124 0,-38.41869 24.739001,-69.38557 58.130841,-69.38557 10.92738,0 20.86574,3.3716 27.95298,10.73723 5.37286,5.61934 1.53272,13.17514 4.68083,17.89538 5.02685,7.59051 14.55318,5.8441 17.65163,2.61077 5.1425,-5.3945 2.65375,-12.51807 -1.59872,-16.87518 -12.37745,-12.67374 -29.88106,-17.54959 -48.3737,-17.54959 -40.923846,0 -71.77753,32.31535 -71.77753,72.39427 0,40.07861 33.194163,72.56696 74.11794,72.56696 18.31131,0 35.07323,-6.50126 48.01135,-17.29024 1.6974,-1.4177 2.76877,-5.03134 0.70869,-6.72584 -2.88443,-2.42052 -6.13122,0.63981 -7.31792,1.95371 z"
     id="path2"
     style="fill:#3c0d00;fill-opacity:1;stroke-width:3.20385337"
     inkscape:connector-curvature="0"
     inkscape:export-filename="C:\Users\suitedoalex\sites\cacau-show-logo-4.png"
     inkscape:export-xdpi="66.586487"
     inkscape:export-ydpi="66.586487" />
  <path
     d="m 137.91388,397.39221 c 0,-0.8817 -0.69235,-1.24502 -2.15908,-1.24502 -4.73017,-0.18999 -11.07572,-1.43501 -14.05883,-6.39714 -5.0435,-8.36846 -0.44501,-13.6593 -2.01073,-19.67646 -1.56573,-6.03414 -8.33995,-9.44047 -14.55351,-5.29084 -7.334259,4.89324 -1.96108,19.01935 7.63126,26.0909 3.7578,2.76652 10.25137,5.75764 17.60229,7.21027 2.22508,0.4322 4.12048,0.55298 5.7192,0.5014 1.36805,0.016 1.8294,-0.39792 1.8294,-1.19311 z"
     id="path4"
     style="fill:#3c0d00;fill-opacity:1;stroke-width:3.20385337"
     inkscape:connector-curvature="0"
     inkscape:export-filename="C:\Users\suitedoalex\sites\cacau-show-logo-4.png"
     inkscape:export-xdpi="66.586487"
     inkscape:export-ydpi="66.586487" />
  <path
     d="m 171.33872,348.40913 c -8.99898,-8.99097 -28.77701,-14.55832 -41.79747,-18.67367 -9.51,-3.26761 -13.69647,-9.05985 -13.66347,-15.97601 0.0497,-10.71996 8.42229,-13.4691 13.02078,-14.74859 1.87874,-0.53599 1.61506,-1.55611 1.35138,-2.07481 -0.34601,-0.72618 -1.07137,-1.08928 -2.47241,-0.72618 -5.4552,1.48694 -9.64168,3.45804 -13.91049,6.81232 -10.35037,8.16105 -15.0312,34.47686 13.2348,43.36402 1.0877,0.36301 19.82736,7.15805 24.93687,9.04256 9.51,3.52744 18.09696,8.42036 19.03633,20.83497 0.7087,9.45746 -6.31255,14.54101 -11.19106,16.85772 -0.97237,0.5014 -0.93937,1.14121 -0.59335,1.62531 0.34602,0.51871 1.20305,0.77822 2.52175,0.13841 3.13145,-1.55611 7.07059,-4.16693 11.2074,-8.64527 9.22966,-9.94187 9.79002,-26.38469 -1.68106,-37.83078 z"
     id="path6"
     style="fill:#3c0d00;fill-opacity:1;stroke-width:3.20385337"
     inkscape:connector-curvature="0"
     inkscape:export-filename="C:\Users\suitedoalex\sites\cacau-show-logo-4.png"
     inkscape:export-xdpi="66.586487"
     inkscape:export-ydpi="66.586487" />
  <path
     d="m 391.82951,401.57708 2.50541,7.00234 7.12217,0.34569 -5.55549,4.65135 1.87746,7.19265 -5.94955,-4.08043 -5.94956,4.08043 1.88066,-7.19265 -5.5715,-4.65135 7.11896,-0.34569 z"
     id="path8"
     style="fill:#3c0d00;fill-opacity:1;stroke-width:3.20385337"
     inkscape:connector-curvature="0"
     inkscape:export-filename="C:\Users\suitedoalex\sites\cacau-show-logo-4.png"
     inkscape:export-xdpi="66.586487"
     inkscape:export-ydpi="66.586487" />
  <path
     d="m 354.91151,401.57708 2.52175,7.00234 7.11992,0.34569 -5.57086,4.65135 1.8954,7.19265 -5.96621,-4.08043 -5.94988,4.08043 1.8954,-7.19265 -5.57086,-4.65135 7.12024,-0.34569 z"
     id="path10"
     style="fill:#3c0d00;fill-opacity:1;stroke-width:3.20385337"
     inkscape:connector-curvature="0"
     inkscape:export-filename="C:\Users\suitedoalex\sites\cacau-show-logo-4.png"
     inkscape:export-xdpi="66.586487"
     inkscape:export-ydpi="66.586487" />
  <path
     d="m 317.64653,401.57708 2.52175,7.00234 7.11992,0.34569 -5.57086,4.65135 1.87906,7.19265 -5.94987,-4.08043 -5.93354,4.08043 1.8624,-7.19265 -5.5542,-4.65135 7.12024,-0.34569 z"
     id="path12"
     style="fill:#3c0d00;fill-opacity:1;stroke-width:3.20385337"
     inkscape:connector-curvature="0"
     inkscape:export-filename="C:\Users\suitedoalex\sites\cacau-show-logo-4.png"
     inkscape:export-xdpi="66.586487"
     inkscape:export-ydpi="66.586487" />
  <path
     d="m 546.65892,401.57708 2.4894,7.00234 7.10294,0.34569 -5.53626,4.65135 1.87746,7.19265 -5.93354,-4.08043 -5.96557,4.08043 1.89347,-7.19265 -5.56829,-4.65135 7.10294,-0.34569 z"
     id="path14"
     style="fill:#3c0d00;fill-opacity:1;stroke-width:3.20385337"
     inkscape:connector-curvature="0"
     inkscape:export-filename="C:\Users\suitedoalex\sites\cacau-show-logo-4.png"
     inkscape:export-xdpi="66.586487"
     inkscape:export-ydpi="66.586487" />
  <path
     d="m 509.27957,401.57708 2.50541,7.00234 7.10294,0.34569 -5.55548,4.65135 1.88066,7.19265 -5.93353,-4.08043 -5.94956,4.08043 1.87746,-7.19265 -5.55548,-4.65135 7.10614,-0.34569 z"
     id="path16"
     style="fill:#3c0d00;fill-opacity:1;stroke-width:3.20385337"
     inkscape:connector-curvature="0"
     inkscape:export-filename="C:\Users\suitedoalex\sites\cacau-show-logo-4.png"
     inkscape:export-xdpi="66.586487"
     inkscape:export-ydpi="66.586487" />
  <path
     d="m 472.12768,401.57708 2.52464,7.00234 7.11896,0.34569 -5.55548,4.65135 1.86464,7.19265 -5.95276,-4.08043 -5.93353,4.08043 1.88066,-7.19265 -5.55548,-4.65135 7.10614,-0.34569 z"
     id="path18"
     style="fill:#3c0d00;fill-opacity:1;stroke-width:3.20385337"
     inkscape:connector-curvature="0"
     inkscape:export-filename="C:\Users\suitedoalex\sites\cacau-show-logo-4.png"
     inkscape:export-xdpi="66.586487"
     inkscape:export-ydpi="66.586487" />
  <path
     d="m 431.38748,395.4558 3.32881,9.26746 9.42573,0.4668 -7.38167,6.19017 2.50541,9.54396 -7.87828,-5.44623 -7.89429,5.44623 2.48619,-9.54396 -7.34964,-6.19017 9.3937,-0.4668 z"
     id="path20"
     style="fill:#3c0d00;fill-opacity:1;stroke-width:3.20385337"
     inkscape:connector-curvature="0"
     inkscape:export-filename="C:\Users\suitedoalex\sites\cacau-show-logo-4.png"
     inkscape:export-xdpi="66.586487"
     inkscape:export-ydpi="66.586487" />
  <path
     d="m 457.60782,363.84914 c -0.80737,1.2793 -1.64678,2.33401 -2.53745,3.16413 -1.00601,0.9163 -2.0761,1.3658 -3.24551,1.3658 -0.94193,0 -1.76532,-0.22459 -2.35803,-0.72599 -0.64398,-0.4668 -1.13737,-1.34883 -1.51542,-2.59352 -0.36204,-1.21042 -0.61194,-2.93954 -0.69204,-5.10086 -0.13136,-2.16133 -0.1666,-4.92752 -0.1666,-8.28197 v -5.46352 c 0,-2.12672 0.016,-4.14963 0.0833,-6.10366 0.0481,-1.93642 0.0993,-3.68283 0.14738,-5.18705 0.0513,-1.52151 0.13136,-2.54161 0.23068,-3.09492 0.23067,-3.04301 -1.25271,-3.97662 -2.52144,-3.42332 -1.1694,0.6395 -2.45415,1.62532 -3.87345,2.90463 -1.43213,1.31421 -2.19144,3.00842 -2.29076,5.04863 -0.23068,4.01153 -0.85543,8.10927 -1.89348,12.36271 -0.42931,1.3139 -1.10533,3.12951 -1.996,5.53273 -0.89067,2.38622 -1.96076,4.72024 -3.22948,7.07187 -1.26873,2.31669 -2.63677,4.32232 -4.12016,6.01683 -1.48338,1.67722 -2.91871,2.52432 -4.28675,2.52432 -2.20746,0 -3.64278,-1.3485 -4.28355,-4.08043 -0.62796,-2.69732 -0.95796,-7.52104 -0.95796,-14.4545 v -5.39465 c 0,-2.05752 0.0353,-4.02853 0.0833,-5.99954 0.0513,-1.95403 0.0993,-3.64823 0.1666,-5.11815 0.0481,-1.46961 0.11534,-2.45511 0.23068,-3.00842 0.21146,-2.54162 -1.27193,-3.97663 -2.52463,-3.42332 -1.16941,0.63949 -2.48619,1.62532 -3.9856,2.90462 -1.46736,1.31422 -2.21066,3.00841 -2.21066,5.04863 v 17.56705 c 0,4.11503 0.21466,7.53866 0.61194,10.33947 -0.71126,1.12391 -1.43533,2.07482 -2.22668,2.83573 -0.98999,0.9163 -2.09212,1.3658 -3.31278,1.3658 -0.93873,0 -1.69805,-0.24189 -2.3228,-0.72599 -0.61193,-0.46712 -1.08931,-1.34882 -1.46736,-2.57654 -0.34602,-1.262 -0.5767,-2.93921 -0.67601,-5.10054 -0.11534,-2.16132 -0.14738,-4.91022 -0.14738,-8.26466 0,-0.96821 0.016,-2.31703 0.0801,-4.04583 0.0353,-1.72912 0.11534,-3.54474 0.23068,-5.41195 0.0993,-1.8845 0.26592,-3.75203 0.44534,-5.58463 0.57669,-5.39465 -2.96677,-6.13827 -4.51423,-5.72305 -1.30397,0.3457 -3.57871,1.08931 -5.25753,-0.43251 -1.69804,-1.48691 -4.33481,-2.2475 -7.94555,-2.2475 -2.1751,0 -4.44983,0.4668 -6.85593,1.3658 -2.40641,0.9163 -4.64783,2.45512 -6.62557,4.61644 -2.02739,2.14401 -3.67546,5.03165 -4.9445,8.66257 -1.00537,2.78351 -1.59873,6.15525 -1.82972,10.06299 -0.6757,1.59071 -1.48307,3.26761 -2.4391,5.01403 -1.1537,2.05751 -2.42275,3.97662 -3.87314,5.79224 -1.45038,1.78103 -3.0161,3.25063 -4.71382,4.46073 -1.71407,1.17581 -3.49413,1.78102 -5.34019,1.78102 -1.54906,0 -3.0161,-0.27649 -4.40049,-0.8125 -1.41738,-0.536 -2.62075,-1.41802 -3.64246,-2.66272 -1.02203,-1.24502 -1.84606,-2.90493 -2.47241,-4.96245 -0.6097,-2.05751 -0.93937,-4.59913 -0.93937,-7.62485 0,-4.35724 0.34601,-7.97086 1.02203,-10.8931 0.65903,-2.92191 1.54906,-5.29052 2.63709,-7.07154 1.08771,-1.78103 3.57646,-4.94515 7.20226,-4.94515 4.02148,0 7.38392,1.46993 7.38392,4.37454 0,0.65711 -1.64806,8.80066 4.49949,7.81516 2.99977,-0.4668 3.14811,-4.47803 2.48875,-6.36285 -2.71943,-7.65946 -11.10872,-8.74877 -14.70184,-8.74877 -1.96108,0 -4.49949,0.3976 -6.7739,1.21042 -2.25776,0.8125 -4.35116,2.19592 -6.27956,4.14963 -1.91174,1.93641 -3.49412,4.59913 -4.77951,7.97087 -1.2857,3.33681 -1.94473,7.62485 -1.94473,12.81189 0,3.90773 0.51069,7.14074 1.56572,9.75156 0.14834,0.39792 0.31302,0.76092 0.49435,1.12392 -0.51101,0.72631 -1.0547,1.34882 -1.59872,1.88482 -0.98903,0.9163 -2.09308,1.36581 -3.32944,1.36581 -0.92271,0 -1.68107,-0.2419 -2.30742,-0.72632 -0.60969,-0.4668 -1.08771,-1.3485 -1.46672,-2.57622 -0.36268,-1.26199 -0.57702,-2.93921 -0.6757,-5.10054 -0.13199,-2.16132 -0.16499,-4.91022 -0.16499,-8.26466 0,-0.96821 0.0167,-2.31703 0.066,-4.04583 0.066,-1.72912 0.13199,-3.54474 0.24733,-5.41195 0.0987,-1.8845 0.26368,-3.75203 0.44502,-5.58463 0.56035,-5.39465 -2.96677,-6.13827 -4.51615,-5.72305 -1.31839,0.3457 -3.57646,1.08931 -5.27419,-0.43251 -1.6974,-1.4869 -4.35115,-2.2475 -7.94395,-2.2475 -2.14274,0 -4.43349,0.4668 -6.85657,1.3658 -2.42275,0.91631 -4.61483,2.45512 -6.62557,4.61644 -1.99407,2.14401 -3.64246,5.03165 -4.92784,8.66257 -1.28571,3.61363 -1.9284,8.17816 -1.9284,13.65931 0,5.94764 1.08771,10.44328 3.24678,13.5036 2.17574,3.06032 4.73017,4.61644 7.7136,4.61644 2.55443,0 4.87851,-0.91631 6.92225,-2.76653 2.06007,-1.8153 3.85647,-3.99393 5.38952,-6.53554 1.54906,-2.54162 2.80177,-5.06593 3.7908,-7.60787 0.98871,-2.54162 1.71406,-4.56453 2.22475,-6.08604 0,7.12345 0.52768,12.7257 1.63172,16.82343 1.07137,4.09773 3.47779,6.15524 7.15325,6.15524 2.25775,0 4.26849,-0.76059 6.01555,-2.28242 1.56605,-1.3485 2.95043,-2.95652 4.13714,-4.77182 0.65903,0.98551 1.36804,1.86721 2.15908,2.61082 1.64806,1.57341 3.56012,2.71431 5.71919,3.42332 2.19208,0.69171 4.35116,1.05471 6.51023,1.05471 2.90077,0 5.50486,-0.76092 7.81228,-2.28243 2.34041,-1.50421 4.35115,-3.31951 6.04855,-5.42893 1.69773,-2.12672 3.14811,-4.35724 4.33482,-6.74315 0.39567,-0.76091 0.72535,-1.46993 1.05471,-2.16133 0.18133,5.16975 1.23636,9.18097 3.19744,11.96479 2.15908,3.06033 4.73049,4.61644 7.7136,4.61644 2.57109,0 4.87851,-0.9163 6.93858,-2.76652 2.04406,-1.81531 3.85744,-3.99393 5.38889,-6.53554 1.53464,-2.54162 2.80337,-5.06594 3.77414,-7.60788 0.95795,-2.54161 1.71406,-4.56452 2.22667,-6.08604 0,7.12344 0.52544,12.7257 1.61475,16.82344 1.07008,4.09772 3.47618,6.15524 7.1542,6.15524 2.29075,0 4.26753,-0.76059 6.01363,-2.28242 1.56669,-1.3485 2.90269,-2.90461 4.10414,-4.72024 0.21466,0.83012 0.46135,1.59072 0.75931,2.24783 1.35203,3.12952 4.05288,4.68563 8.07692,4.68563 2.30677,0 4.46617,-0.86441 6.491,-2.59352 2.01202,-1.72912 3.8254,-3.80394 5.45616,-6.24176 1.64999,-2.43781 3.03405,-4.97942 4.21948,-7.57294 1.15339,-2.59352 2.06008,-4.77214 2.70405,-6.51856 0,7.48676 0.52543,13.17521 1.64678,17.08263 1.10533,3.90774 3.55948,5.84415 7.36887,5.84415 2.30677,0 4.36685,-0.76059 6.16421,-2.2821 1.79416,-1.52152 3.34482,-3.33714 4.68083,-5.42926 1.61474,-2.62811 -0.016,-5.22163 -1.18863,-3.11222 z M 309.12556,346.61081 c -0.85703,3.45791 -1.9944,6.89886 -3.39545,10.35677 -1.38438,3.45792 -2.9831,6.46665 -4.7795,9.04287 -1.78007,2.59352 -3.60947,3.90742 -5.47187,3.90742 -1.1207,0 -2.27441,-1.02009 -3.37878,-3.00842 -1.13737,-1.9883 -1.69772,-5.51543 -1.69772,-10.59898 0,-8.73145 1.10437,-15.14621 3.31278,-19.24395 2.20874,-4.11503 4.92817,-6.15524 8.10896,-6.15524 2.78543,0 4.91182,0.899 6.39489,2.68002 1.48338,1.7807 2.22507,3.52712 2.22507,5.25624 0,1.7288 -0.44501,4.30502 -1.31838,7.76327 z m 81.8325,0 c -0.87465,3.45791 -1.996,6.89886 -3.39609,10.35677 -1.38406,3.45792 -2.98278,6.46665 -4.78015,9.04287 -1.7964,2.59352 -3.64214,3.90742 -5.4882,3.90742 -1.1207,0 -2.24141,-1.02009 -3.37878,-3.00842 -1.13705,-1.9883 -1.68106,-5.51543 -1.68106,-10.59898 0,-8.73145 1.08771,-15.14621 3.29644,-19.24395 2.20842,-4.11503 4.91151,-6.15524 8.09101,-6.15524 2.78736,0 4.91151,0.899 6.41412,2.68002 1.48338,1.7807 2.22347,3.52712 2.22347,5.25624 0.016,1.7288 -0.42931,4.30502 -1.30076,7.76327 z"
     id="path22"
     style="fill:#3c0d00;fill-opacity:1;stroke-width:3.20385337"
     inkscape:connector-curvature="0"
     inkscape:export-filename="C:\Users\suitedoalex\sites\cacau-show-logo-4.png"
     inkscape:export-xdpi="66.586487"
     inkscape:export-ydpi="66.586487" />
  <path
     d="m 495.45173,340.95761 c -2.54065,-1.91943 -5.47218,-3.37173 -11.58833,-6.22444 -4.72889,-2.23053 -6.90431,-2.90494 -8.84905,-4.18424 -3.97277,-2.76652 -5.81819,-5.82685 -5.81819,-9.87299 0,-6.96774 5.22548,-11.30765 12.8891,-11.30765 5.52024,0 9.98641,2.21319 9.98641,5.49842 l -0.11534,1.05471 c -0.26272,1.2793 -0.36204,2.02291 -0.39407,2.2302 -0.15058,2.68003 1.94474,4.54755 3.96957,4.54755 2.34202,0 4.27074,-2.23052 4.27074,-4.97975 0,-5.82685 -8.12497,-11.2386 -17.63722,-11.2386 -10.84504,0 -19.9568,8.23018 -19.9568,18.50046 0,5.20434 2.02484,9.38857 6.62557,12.44889 2.27153,1.53913 4.53025,2.99144 10.26515,5.53305 5.12616,2.31671 7.22148,3.61363 9.2303,4.97943 4.54947,3.18143 7.02284,6.63967 7.02284,11.6364 0,8.05737 -5.80217,12.79491 -14.42054,12.79491 -4.66481,0 -7.36886,-0.39792 -9.19826,-3.45825 -0.33,-0.53601 -0.50941,-1.15851 -0.50941,-1.7115 v -0.29412 c 0.0961,-0.32839 0.0961,-0.5187 0.0961,-0.72599 0.0673,-0.22491 0.0673,-0.32871 0.18262,-0.63981 l 0.0993,-0.4149 0.11534,-1.17581 c 0,-2.33433 -1.94474,-4.54755 -3.9888,-4.54755 -2.2427,0 -4.26753,2.31704 -4.26753,4.96245 0,6.05144 8.25633,11.03119 18.1274,11.03119 5.40811,0 9.60836,-1.71181 13.76375,-5.61924 4.26754,-4.02885 6.3949,-8.90446 6.3949,-14.50672 0.016,-5.74034 -1.73008,-10.59867 -6.29558,-14.3161 z"
     id="path24"
     style="fill:#3c0d00;fill-opacity:1;stroke-width:3.20385337"
     inkscape:connector-curvature="0"
     inkscape:export-filename="C:\Users\suitedoalex\sites\cacau-show-logo-4.png"
     inkscape:export-xdpi="66.586487"
     inkscape:export-ydpi="66.586487" />
  <path
     d="m 637.16137,328.30079 c -0.80737,-1.14121 -1.79736,-1.69453 -3.00201,-1.69453 -2.19144,0 -3.27754,1.19313 -3.27754,3.56205 0,0.96821 0.17941,1.86721 0.52543,2.697 0.34602,0.81282 0.70805,1.62532 1.10533,2.42084 0.4133,0.8125 0.77533,1.65992 1.13737,2.50702 0.34601,0.8817 0.50941,1.79832 0.50941,2.76652 0,1.52151 -0.27874,3.44062 -0.82339,5.75765 -0.56068,2.334 -1.26873,4.78944 -2.17542,7.38296 -0.87465,2.59352 -1.96076,5.20434 -3.19744,7.88404 -1.25271,2.64542 -2.50542,4.99705 -3.79016,7.05456 -0.31398,0 -0.7433,-0.72631 -1.26873,-2.12671 -0.56067,-1.38311 -1.15338,-3.21603 -1.81338,-5.42925 -0.65999,-2.23021 -1.31999,-4.65104 -2.01202,-7.31376 -0.70805,-2.64542 -1.35202,-5.25624 -1.92872,-7.81516 -0.60873,-2.52432 -1.07008,-4.85832 -1.44814,-6.95044 -1.59872,-9.54428 -0.52864,-13.93612 -6.95556,-8.50687 -1.45135,1.22772 -2.60474,3.87314 -1.30397,10.06298 0.26592,1.36581 0.48057,2.36861 0.89067,3.87282 -0.4934,1.85023 -1.21747,4.08043 -2.1594,6.74315 -0.95475,2.64542 -1.9095,5.22164 -2.85143,7.71168 -0.93873,2.48971 -1.77814,4.59913 -2.53745,6.32825 -0.74009,1.7288 -1.26873,2.59352 -1.56668,2.59352 -0.21146,0 -0.5767,-0.67442 -1.11815,-2.04022 -0.48058,-1.17581 -6.52945,-25.7106 -6.62557,-26.1601 -1.996,-9.59618 -0.72727,-14.47213 -7.1542,-9.00828 -1.38407,1.1755 -2.45736,3.63093 -1.49941,9.12906 0.032,0.27682 0.0993,0.55331 0.13136,0.81282 0.0481,0.13809 0.0993,0.4322 0.21466,0.8471 0.14738,0.74362 0.29475,1.45231 0.47737,2.23052 0.70806,3.09493 1.89669,8.07435 3.29677,13.26139 1.56668,5.74067 3.7421,12.41461 4.23549,13.83232 2.58872,7.38296 7.63158,3.42332 9.24632,0.32839 0.79136,-1.52151 1.64678,-3.28491 2.52144,-5.29052 0.92271,-1.98863 1.78134,-4.06345 2.62075,-6.15556 0.85543,-2.10942 1.63076,-4.16693 2.32279,-6.15524 0.71126,-2.00562 1.28795,-3.76934 1.79736,-5.29085 0.60874,2.26513 1.22067,4.66834 1.86144,7.14107 0.66,2.48971 1.28795,4.82372 1.86465,6.98504 0.59271,2.16132 1.13736,4.02853 1.5827,5.60194 0.42611,1.57341 0.75611,2.50733 0.97077,2.83573 0.69203,1.72912 1.64678,2.93921 2.83541,3.66553 1.20144,0.70901 4.53345,1.76372 7.33362,-3.33714 1.43532,-2.64542 2.95075,-5.49813 4.38287,-8.67955 1.45134,-3.19873 2.75531,-6.44936 3.87346,-9.83808 1.15338,-3.33713 2.11134,-6.63934 2.85143,-9.88997 0.75931,-3.25063 1.10533,-6.22445 1.10533,-8.93907 0,-2.43814 -0.39408,-4.25344 -1.18543,-5.39465 z"
     id="path26"
     style="fill:#3c0d00;fill-opacity:1;stroke-width:3.20385337"
     inkscape:connector-curvature="0"
     inkscape:export-filename="C:\Users\suitedoalex\sites\cacau-show-logo-4.png"
     inkscape:export-xdpi="66.586487"
     inkscape:export-ydpi="66.586487" />
  <path
     d="m 577.10194,335.18235 c -1.30397,-2.04022 -2.93473,-3.71712 -4.87947,-4.99673 -1.97678,-1.33121 -4.28676,-1.97101 -6.97159,-1.97101 -2.45735,0 -4.79617,0.4495 -7.05488,1.4004 -2.22348,0.9163 -4.20346,2.35163 -5.91752,4.28804 -1.69804,1.95371 -3.08211,4.42612 -4.15219,7.38296 -1.05407,2.99111 -1.58271,6.48363 -1.58271,10.49518 0,3.87282 0.47738,7.29645 1.41931,10.21837 0.34602,1.02011 0.75611,1.98831 1.18543,2.90493 -0.56068,0.8298 -1.12135,1.59072 -1.7461,2.16132 -0.95796,0.95091 -2.02804,1.38311 -3.21667,1.38311 -0.88747,0 -1.59873,-0.24222 -2.0761,-0.72632 -0.50941,-0.4841 -0.89067,-1.435 -1.13737,-2.83541 -0.24669,-1.40072 -0.41009,-3.38903 -0.46135,-5.94795 -0.0641,-2.54162 -0.0801,-5.91335 -0.0801,-10.13219 0,-7.46914 -0.0192,-12.06827 -1.15659,-15.1978 -1.34882,-3.70013 -4.03686,-5.41195 -7.79498,-5.41195 -2.40609,0 -4.61354,0.8644 -6.6576,2.59352 -2.04406,1.72912 -3.85744,3.83854 -5.37286,6.32825 -1.55067,2.47242 -2.86745,5.04864 -3.97278,7.71136 -1.10533,2.62812 -1.89668,4.84134 -2.39008,6.57046 0,0 0.016,-8.29958 0.016,-19.62456 0,-9.94188 -0.0641,-12.86379 0.0673,-20.62737 0.0481,-4.01119 -3.28074,-2.19573 -5.27354,-0.17269 -2.06008,2.07482 -2.67201,2.74891 -2.67201,5.49814 0,2.76652 0.11534,49.27718 0.0513,50.85059 -0.0513,1.59072 -0.34602,3.18143 -0.44534,3.71743 -0.19864,0.8644 -0.39727,1.55612 -0.57669,2.02292 -0.21466,0.4841 -0.31398,0.899 -0.31398,1.22771 0,0.53601 0.2467,0.7952 0.7433,0.7952 0.80737,0 1.71406,-0.25919 2.68482,-0.7952 1.12135,-0.63981 2.30678,-1.64261 3.67482,-2.92223 1.33601,-1.2966 2.01202,-2.99112 2.01202,-5.04863 0,-2.26513 0.19864,-4.52993 0.59272,-6.81236 0.39728,-2.26512 0.89067,-4.49532 1.4994,-6.65664 0.4133,-1.41803 1.00601,-3.21603 1.86144,-5.42925 0.85863,-2.21322 1.8326,-4.39152 3.00201,-6.58744 1.13737,-2.14402 2.39007,-4.02885 3.72288,-5.58496 1.35202,-1.57341 2.70405,-2.35131 4.10413,-2.35131 1.00601,0 1.81338,0.27649 2.47338,0.7952 0.64397,0.5533 1.23669,1.43532 1.48338,2.76652 0.4133,2.00562 0.27874,3.00842 0.34602,5.29085 0.0673,3.19872 -0.11534,5.15243 -0.11534,8.62765 0,8.33419 0.42932,14.47213 1.26873,18.41415 0.85863,3.94234 3.67482,5.96526 7.25352,5.96526 2.19144,0 4.12016,-0.76092 5.75092,-2.28243 1.56668,-1.45231 2.95075,-3.14682 4.15219,-5.15244 0.42932,0.67441 0.89067,1.31422 1.38406,1.86753 1.64999,1.88451 3.54347,3.30221 5.68684,4.21851 2.12736,0.93393 4.41812,1.40073 6.89149,1.40073 3.72288,0 7.20227,-1.17582 9.83904,-4.08043 5.86625,-6.46666 6.44295,-15.42303 6.5743,-17.70545 0.0513,-1.07201 0.0673,-2.1956 0.0673,-3.42332 0,-2.47241 -0.31397,-4.99673 -0.95474,-7.53867 -0.61194,-2.50701 -1.56669,-4.82372 -2.83541,-6.88155 z m -4.02404,32.71326 c -1.73008,2.36893 -4.43093,3.16413 -7.18304,3.16413 -2.55668,0 -5.72208,-1.55612 -7.63158,-4.63374 -1.9127,-3.09492 -2.88667,-8.14387 -2.88667,-15.18082 0,-6.91616 0.97397,-11.98209 2.88667,-15.18081 1.92872,-3.18143 5.0749,-4.78944 7.63158,-4.78944 2.02483,0 3.73889,0.5187 5.17422,1.52151 1.46736,1.0547 2.65279,2.36892 3.62676,3.97662 0.95475,1.62531 1.69484,3.38903 2.25551,5.29084 0.51262,1.91943 3.21667,16.16633 -3.87345,25.83171 z"
     id="path28"
     style="fill:#3c0d00;fill-opacity:1;stroke-width:3.20385337"
     inkscape:connector-curvature="0"
     inkscape:export-filename="C:\Users\suitedoalex\sites\cacau-show-logo-4.png"
     inkscape:export-xdpi="66.586487"
     inkscape:export-ydpi="66.586487" />
  <path
     d="m 258.64212,308.86692 c 4.81251,0.12111 7.87828,1.26225 10.28469,4.14957 1.8294,2.21322 0.47769,6.22444 2.01074,8.40306 2.47209,3.56173 6.51023,2.85303 7.72994,1.12391 2.37309,-2.64542 1.21938,-5.86145 -0.65936,-7.95356 -5.43886,-6.05147 -13.1688,-8.38567 -21.32741,-8.38567 -18.0473,0 -32.25447,15.45753 -32.10613,34.59767 0.18134,23.60119 15.34421,35.35869 33.37518,35.35869 8.07627,0 15.19619,-3.80393 20.93173,-8.93907 0.85703,-0.77822 1.50005,-2.62812 0.198,-3.78663 -1.68138,-1.50421 -3.29644,0.2076 -3.80746,0.84709 -4.79617,5.67146 -10.39971,8.66258 -17.53629,8.66258 -14.71818,0 -22.54712,-13.469 -22.54712,-31.83124 0.0167,-18.32764 10.20203,-32.60949 23.45349,-32.2464 z"
     id="path30"
     style="fill:#3c0d00;fill-opacity:1;stroke-width:3.20385337"
     inkscape:connector-curvature="0"
     inkscape:export-filename="C:\Users\suitedoalex\sites\cacau-show-logo-4.png"
     inkscape:export-xdpi="66.586487"
     inkscape:export-ydpi="66.586487" />
</svg>
