<?xml version="1.0" standalone="no"?>
<!DOCTYPE svg PUBLIC "-//W3C//DTD SVG 20010904//EN"
 "http://www.w3.org/TR/2001/REC-SVG-20010904/DTD/svg10.dtd">
<svg version="1.0" xmlns="http://www.w3.org/2000/svg"
 width="500.000000pt" height="500.000000pt" viewBox="0 0 500.000000 500.000000"
 preserveAspectRatio="xMidYMid meet">

<g transform="translate(0.000000,500.000000) scale(0.100000,-0.100000)"
fill="#000000" stroke="none">
<path d="M2416 3748 c-2 -7 -16 -60 -31 -118 -28 -110 -30 -165 -6 -165 14 0
17 4 43 65 20 45 38 167 31 203 -5 27 -31 37 -37 15z"/>
<path d="M2004 3667 c-11 -29 25 -161 54 -197 65 -79 82 -32 33 89 -44 109
-73 144 -87 108z"/>
<path d="M2807 3589 c-34 -40 -128 -171 -113 -157 5 4 15 1 23 -7 8 -8 20 -15
26 -15 12 0 109 157 121 198 12 36 -18 27 -57 -19z"/>
<path d="M1750 3416 c0 -8 -6 -16 -12 -19 -23 -8 5 -40 61 -71 44 -23 58 -27
84 -20 45 13 44 29 -4 61 -23 15 -53 36 -68 45 -31 22 -61 23 -61 4z"/>
<path d="M3073 3364 c-87 -66 -104 -85 -88 -100 20 -20 39 -17 104 16 46 23
59 34 59 52 0 13 3 33 7 46 11 35 -25 28 -82 -14z"/>
<path d="M3948 3113 c-14 -76 -27 -367 -19 -411 5 -24 26 -68 46 -98 l38 -55
-6 -102 c-4 -56 -13 -174 -22 -262 -17 -187 -19 -444 -4 -498 5 -20 21 -44 34
-53 23 -15 27 -15 50 0 14 10 30 28 35 42 14 37 12 206 -5 379 -8 83 -17 227
-21 320 l-6 170 25 35 c63 85 62 82 60 260 -1 91 -6 197 -11 235 l-8 70 -7
-135 c-10 -178 -16 -215 -31 -200 -7 7 -13 70 -15 173 l-5 162 -11 -167 c-6
-92 -15 -171 -18 -175 -17 -16 -22 20 -27 180 l-5 172 -11 -168 c-6 -100 -15
-172 -22 -179 -7 -7 -13 -10 -13 -8 -1 3 -5 84 -8 180 -4 123 -8 163 -13 133z"/>
<path d="M907 3095 c-32 -32 -35 -125 -25 -910 1 -117 -4 -205 -15 -283 -21
-141 -22 -253 -2 -291 24 -48 63 -54 100 -16 22 21 25 33 25 102 0 43 -7 130
-14 193 -8 63 -18 178 -21 255 l-7 140 38 85 39 85 -2 165 c-2 233 -37 433
-82 474 -17 15 -20 15 -34 1z"/>
<path d="M1371 2929 l-33 -10 6 -257 c8 -311 12 -362 32 -362 38 0 219 32 247
44 18 7 59 42 93 78 58 62 62 71 84 157 24 99 23 162 -6 230 -20 48 -38 65
-100 101 -52 29 -58 30 -171 29 -65 0 -133 -5 -152 -10z"/>
<path d="M2690 2924 c-14 -3 -44 -7 -67 -10 l-42 -5 -30 -132 c-32 -135 -81
-404 -81 -445 0 -22 3 -23 67 -20 59 3 68 6 71 23 2 11 10 43 18 71 14 51 14
52 61 58 27 4 60 9 75 12 25 5 30 0 68 -76 45 -90 46 -90 123 -61 23 9 27 15
22 34 -23 72 -87 233 -151 375 -41 90 -74 168 -74 173 0 9 -13 10 -60 3z"/>
<path d="M3370 2881 l-35 -6 -3 -107 -3 -106 -128 -7 -129 -7 5 -37 c3 -20 8
-49 12 -66 l7 -30 114 4 113 3 -6 -107 -7 -108 46 7 c26 3 57 6 70 6 23 0 24
3 24 74 0 40 3 86 6 102 l5 29 99 -3 99 -4 -6 69 c-3 37 -8 70 -10 72 -2 3
-43 6 -91 8 l-87 2 -3 111 -3 110 -27 -1 c-15 -1 -43 -4 -62 -8z"/>
<path d="M2049 2860 c-68 -9 -114 -38 -129 -84 -13 -42 3 -360 21 -400 8 -16
32 -37 58 -50 45 -22 48 -23 181 -10 74 7 143 15 152 19 36 14 46 71 37 215
-10 162 -14 182 -47 242 -42 75 -102 90 -273 68z"/>
<path d="M3040 1650 c0 -5 -5 -9 -12 -7 -26 5 -18 -31 9 -42 15 -6 42 -20 58
-30 17 -10 42 -21 58 -25 23 -5 27 -3 27 14 0 11 5 20 10 20 6 0 10 7 10 15 0
9 -22 26 -52 40 -54 25 -108 33 -108 15z"/>
<path d="M1843 1532 c-42 -29 -53 -42 -53 -63 0 -15 -3 -34 -6 -43 -4 -10 0
-18 10 -22 21 -8 73 31 122 92 37 44 37 47 19 60 -26 19 -32 17 -92 -24z"/>
<path d="M2820 1475 c0 -29 95 -194 116 -202 28 -10 36 12 20 53 -8 21 -17 51
-20 67 -4 15 -23 45 -42 67 -42 46 -74 53 -74 15z"/>
<path d="M2182 1423 c-39 -73 -83 -195 -77 -210 6 -16 10 -14 34 14 14 18 45
67 68 110 41 76 41 79 23 91 -27 16 -38 15 -48 -5z"/>
<path d="M2552 1420 c-6 -11 -12 -29 -12 -39 0 -11 -4 -23 -10 -26 -5 -3 -10
-44 -10 -90 0 -148 38 -186 54 -54 13 101 13 221 1 226 -6 2 -16 -6 -23 -17z"/>
</g>
</svg>
