<svg version="1.1" id="Layer_1" xmlns="http://www.w3.org/2000/svg" xmlns:xlink="http://www.w3.org/1999/xlink" x="0px" y="0px"
	 width="100%" viewBox="0 0 500 500" enable-background="new 0 0 500 500" xml:space="preserve">
<path fill="#000000" opacity="1.000000" stroke="none" 
	d="
M237.000000,501.000000 
	C158.000015,501.000000 79.500038,501.000000 1.000042,501.000000 
	C1.000028,334.333405 1.000028,167.666779 1.000014,1.000132 
	C167.666565,1.000088 334.333130,1.000088 500.999756,1.000044 
	C500.999847,167.666519 500.999847,334.333038 500.999939,500.999786 
	C413.166656,501.000000 325.333344,501.000000 237.000000,501.000000 
M87.054924,245.900421 
	C88.031029,254.573715 90.013832,263.276459 89.761040,271.913818 
	C89.317253,287.077484 87.453461,302.197174 86.286583,317.343170 
	C85.708191,324.850739 83.580879,332.353302 86.752586,339.874847 
	C88.360641,343.688293 90.414360,345.197021 94.695045,344.344574 
	C100.823929,343.124115 101.065788,338.301178 100.851952,334.063904 
	C100.176529,320.679718 99.016663,307.314484 97.790596,293.965240 
	C96.802841,283.210724 95.288712,272.546082 101.136856,262.451843 
	C102.744774,259.676514 103.777176,256.218231 103.930244,253.018631 
	C104.307724,245.127991 104.618858,237.147491 103.855949,229.310272 
	C102.837631,218.849335 101.123833,208.416687 98.950264,198.132187 
	C98.316704,195.134476 95.095177,192.683716 93.059914,189.982254 
	C91.700020,192.898682 89.678986,195.694611 89.120796,198.757156 
	C88.030594,204.738708 87.757965,210.869263 86.992889,217.879044 
	C87.045738,226.916382 87.098587,235.953735 87.054924,245.900421 
M155.179749,269.427032 
	C169.014999,266.941833 177.535843,258.796722 180.978287,245.226898 
	C181.427231,243.457184 181.922684,241.697708 182.451065,239.949966 
	C187.541122,223.113678 176.371033,206.186035 158.250854,206.743820 
	C153.256531,206.897552 148.256531,206.874680 143.263092,207.047226 
	C136.568634,207.278549 134.948502,208.800949 135.053741,215.442047 
	C135.248611,227.742004 135.610016,240.040543 136.036133,252.335037 
	C136.214478,257.480896 136.741364,262.614410 137.097290,267.754395 
	C137.323257,271.017761 139.034622,271.999237 142.167740,271.423950 
	C146.251999,270.674011 150.383835,270.182983 155.179749,269.427032 
M222.076920,269.678558 
	C224.717697,269.467163 227.387390,269.433380 229.993500,269.009094 
	C236.310440,267.980682 239.058212,265.605316 238.894913,259.163544 
	C238.626053,248.557053 238.009567,237.879150 236.379532,227.412003 
	C235.005981,218.591919 228.365891,213.857925 219.306168,213.789841 
	C214.511322,213.753784 209.703354,214.343994 204.915039,214.796677 
	C196.045410,215.635162 192.088043,219.241364 192.173447,227.975082 
	C192.286713,239.556763 193.218414,251.133163 193.954987,262.701874 
	C194.028442,263.855621 194.954010,265.207886 195.880539,266.010254 
	C199.609940,269.239777 203.710754,271.508026 208.990356,270.797455 
	C213.090698,270.245544 217.241470,270.068481 222.076920,269.678558 
M409.047516,269.260742 
	C409.029480,263.765320 409.313446,258.247101 408.901031,252.781464 
	C408.550232,248.132416 410.400208,244.597290 412.624084,240.793167 
	C414.628448,237.364548 416.619629,233.411514 416.867981,229.576523 
	C417.452759,220.546753 417.227356,211.440155 416.868317,202.382935 
	C416.660675,197.145294 415.557343,191.943146 414.857147,186.725037 
	C414.497040,186.766495 414.136932,186.807953 413.776825,186.849411 
	C413.249451,197.170624 412.722076,207.491837 412.194702,217.813049 
	C411.460907,217.805389 410.727081,217.797729 409.993256,217.790054 
	C409.993256,212.781937 410.090912,207.771362 409.966003,202.766373 
	C409.839233,197.687378 409.492706,192.613876 409.242432,187.537964 
	C407.710938,192.851517 407.074951,198.114685 406.993896,203.386414 
	C406.813873,215.096451 406.927216,215.098190 404.332520,218.242737 
	C403.117340,208.078201 405.186523,197.842773 402.574371,187.911255 
	C401.675049,193.022552 401.360992,198.121582 400.992279,203.216644 
	C400.630829,208.210556 400.213745,213.200455 399.821106,218.192108 
	C399.071472,218.150192 398.321808,218.108276 397.572174,218.066360 
	C397.572174,207.885208 397.572174,197.704041 397.572174,187.522873 
	C395.885223,188.439178 395.057617,189.410019 394.998138,190.425827 
	C394.272308,202.819107 393.472504,215.213531 393.109467,227.619858 
	C392.964966,232.557404 394.046570,237.565598 397.731079,241.270691 
	C402.227966,245.792679 402.400024,251.246414 401.848877,256.973083 
	C400.916382,266.661743 399.829010,276.337402 399.046021,286.037842 
	C398.473145,293.135529 397.990356,300.264496 397.998749,307.378906 
	C398.009003,316.049744 398.583649,324.719635 398.898804,333.390503 
	C399.039307,337.256866 401.062561,339.116486 404.883972,339.049103 
	C408.890839,338.978394 411.820618,337.293365 411.921112,332.998016 
	C412.144867,323.431946 412.487061,313.838074 412.009216,304.294159 
	C411.439362,292.912201 410.062439,281.570709 409.047516,269.260742 
M250.337036,250.951218 
	C249.705292,254.885178 249.067459,258.818146 248.443634,262.753387 
	C247.893738,266.222290 247.510361,269.362976 252.393219,270.250397 
	C259.357910,271.516235 261.639893,270.697571 262.946198,265.576447 
	C265.448792,255.765488 265.463776,255.872971 275.753418,254.440750 
	C278.522644,254.055298 279.990509,254.315628 280.918518,257.331268 
	C281.833832,260.305725 283.476196,263.109772 285.115723,265.795593 
	C287.652679,269.951569 291.096039,270.473175 296.721497,267.637878 
	C300.636139,265.664825 298.943909,262.412933 297.876984,259.807037 
	C292.083923,245.657547 286.256622,231.517136 280.108032,217.519897 
	C275.979401,208.121002 275.736267,208.496109 265.206604,208.660339 
	C260.735779,208.730057 258.824341,210.694702 258.015411,214.547272 
	C255.526443,226.401001 253.076462,238.262909 250.337036,250.951218 
M337.693604,212.618011 
	C336.487640,214.099228 334.525177,215.447311 334.236115,217.089890 
	C333.666565,220.325943 334.033478,223.725479 333.998474,227.057236 
	C333.921173,234.417557 333.394684,234.752914 325.934448,234.991196 
	C320.068146,235.178574 314.217377,235.852402 308.291473,236.315475 
	C308.567383,239.395752 308.709595,241.698425 308.992218,243.983749 
	C309.511139,248.180298 311.272247,250.813278 316.173462,250.007660 
	C318.613495,249.606567 321.148621,249.744232 323.641663,249.712036 
	C333.469421,249.585068 333.942902,250.132401 332.880798,260.176025 
	C331.775146,270.631592 331.772491,270.593597 342.176605,269.857544 
	C344.637604,269.683441 346.324371,268.970093 346.443573,266.180695 
	C346.592499,262.695587 346.879822,259.215668 346.989594,255.729797 
	C347.177063,249.776642 347.886444,248.965836 353.663208,249.114883 
	C356.649506,249.191956 359.631683,249.514832 362.609985,249.789062 
	C365.416138,250.047440 366.921295,249.174240 367.122620,246.019135 
	C367.771332,235.850952 366.801575,234.739334 356.630829,234.962509 
	C355.465332,234.988098 354.298035,234.934845 353.132751,234.964706 
	C349.549377,235.056549 347.993317,233.242920 348.023193,229.748444 
	C348.058838,225.583923 347.902496,221.416687 347.988647,217.253922 
	C348.080231,212.827286 346.111755,211.124207 341.781494,212.086624 
	C340.648987,212.338318 339.479523,212.423782 337.693604,212.618011 
M255.003677,388.337982 
	C259.170227,388.721771 258.634949,385.489105 258.956238,383.059723 
	C259.517517,378.815247 259.972382,374.554871 260.377075,370.292145 
	C260.656982,367.343781 261.113953,364.347137 260.827393,361.437500 
	C260.684021,359.981476 259.054199,358.671783 258.096680,357.295929 
	C257.069733,358.579407 255.863678,359.763794 255.078979,361.181366 
	C254.558701,362.121277 254.736389,363.420807 254.439667,364.515442 
	C252.328522,372.304138 251.709259,380.084564 255.003677,388.337982 
M237.020309,146.842560 
	C237.195145,149.790955 237.369980,152.739349 237.586655,156.393555 
	C239.303497,155.531708 240.062576,155.397552 240.392929,154.948212 
	C246.482132,146.665756 247.123184,137.042191 246.942093,127.279503 
	C246.928879,126.567574 245.276871,125.192871 244.689240,125.339378 
	C243.686600,125.589378 242.434982,126.654991 242.140411,127.634377 
	C240.314453,133.705307 238.726089,139.847687 237.020309,146.842560 
M200.918869,138.476913 
	C201.260178,139.902206 201.477478,141.371597 201.965652,142.744659 
	C203.524765,147.129913 204.835663,151.663162 206.987411,155.746704 
	C207.780106,157.251068 210.648315,157.661789 212.569855,158.571320 
	C212.906448,156.453766 214.031937,154.074097 213.431732,152.267822 
	C211.630096,146.845703 209.292496,141.582489 206.849106,136.405884 
	C206.211914,135.055893 204.426468,134.247849 203.168396,133.190903 
	C202.435272,134.670151 201.702164,136.149414 200.918869,138.476913 
M297.499908,373.819458 
	C296.772644,365.484924 295.513123,357.373474 287.753448,352.240021 
	C286.519165,351.423462 285.071716,350.929260 283.722809,350.286011 
	C283.482849,351.820892 282.548462,353.706757 283.117554,354.832672 
	C286.388702,361.304321 289.946442,367.636993 293.629517,373.885620 
	C294.002289,374.518097 295.859650,374.275543 297.499908,373.819458 
M315.920013,170.035034 
	C314.541595,166.786682 320.386780,162.793381 314.321716,159.433975 
	C309.916504,163.084106 305.338409,166.676147 301.036163,170.572693 
	C299.842834,171.653488 299.468079,173.638123 298.717773,175.208069 
	C300.794556,175.708160 303.207428,177.130692 304.880035,176.521332 
	C308.669037,175.140884 312.093231,172.759079 315.920013,170.035034 
M179.158234,361.240479 
	C180.603867,361.194366 182.559692,361.739380 183.410965,361.004669 
	C188.329803,356.759155 192.987900,352.211578 198.823380,346.746277 
	C194.944443,345.470764 192.431564,343.705963 190.949951,344.342316 
	C187.265152,345.924927 183.990768,348.519257 180.691498,350.901154 
	C179.929794,351.451050 179.449814,352.743866 179.327087,353.753967 
	C179.058777,355.962341 179.102921,358.208679 179.158234,361.240479 
M277.481812,146.990997 
	C274.936157,150.323166 272.390472,153.655334 269.892639,156.924927 
	C274.093750,162.367020 275.877167,162.307037 279.078613,156.858139 
	C279.410309,156.293610 279.883881,155.811996 280.211304,155.245483 
	C282.836945,150.702545 285.609161,146.230103 287.921814,141.531952 
	C288.410950,140.538223 287.277344,138.669403 286.648193,137.316910 
	C286.583710,137.178253 284.457458,137.511765 283.948608,138.151611 
	C281.827911,140.818298 279.959961,143.685959 277.481812,146.990997 
M192.091141,169.737503 
	C192.093048,168.728882 192.520874,167.184769 192.030670,166.794861 
	C187.386307,163.100800 182.585831,159.603012 177.735077,155.977524 
	C172.266891,165.268997 172.281342,165.313065 180.958771,169.503036 
	C184.370407,171.150375 187.766891,173.088898 192.091141,169.737503 
M219.497726,372.987885 
	C221.922104,368.556854 224.346497,364.125824 226.720367,359.787109 
	C221.330521,355.422424 220.003525,355.774200 217.625275,361.641724 
	C217.194473,362.704620 216.455673,363.642670 216.024628,364.705505 
	C214.319229,368.910614 212.522705,373.092194 211.142075,377.404816 
	C210.849854,378.317535 212.167221,379.745605 212.742981,380.936218 
	C213.703201,380.279510 214.880127,379.796814 215.577148,378.928772 
	C216.903275,377.277252 217.955109,375.405487 219.497726,372.987885 
M313.503784,346.210541 
	C314.120117,346.445953 314.727936,346.707458 315.354218,346.912537 
	C319.448486,348.253082 320.737305,345.001465 321.432953,342.390533 
	C321.730133,341.275146 319.647522,338.983093 318.138580,338.027344 
	C312.908875,334.714996 307.272095,333.975861 301.070618,336.660431 
	C301.930573,338.239685 302.387634,340.285614 303.653442,341.157623 
	C306.464600,343.094177 309.681000,344.442352 313.503784,346.210541 
z"/>
<path fill="#232321" opacity="1.000000" stroke="none" 
	d="
M154.837463,269.503784 
	C150.383835,270.182983 146.251999,270.674011 142.167740,271.423950 
	C139.034622,271.999237 137.323257,271.017761 137.097290,267.754395 
	C136.741364,262.614410 136.214478,257.480896 136.036133,252.335037 
	C135.610016,240.040543 135.248611,227.742004 135.053741,215.442047 
	C134.948502,208.800949 136.568634,207.278549 143.263092,207.047226 
	C148.256531,206.874680 153.256531,206.897552 158.250854,206.743820 
	C176.371033,206.186035 187.541122,223.113678 182.451065,239.949966 
	C181.922684,241.697708 181.427231,243.457184 180.978287,245.226898 
	C177.535843,258.796722 169.014999,266.941833 154.837463,269.503784 
z"/>
<path fill="#232321" opacity="1.000000" stroke="none" 
	d="
M221.723373,269.701660 
	C217.241470,270.068481 213.090698,270.245544 208.990356,270.797455 
	C203.710754,271.508026 199.609940,269.239777 195.880539,266.010254 
	C194.954010,265.207886 194.028442,263.855621 193.954987,262.701874 
	C193.218414,251.133163 192.286713,239.556763 192.173447,227.975082 
	C192.088043,219.241364 196.045410,215.635162 204.915039,214.796677 
	C209.703354,214.343994 214.511322,213.753784 219.306168,213.789841 
	C228.365891,213.857925 235.005981,218.591919 236.379532,227.412003 
	C238.009567,237.879150 238.626053,248.557053 238.894913,259.163544 
	C239.058212,265.605316 236.310440,267.980682 229.993500,269.009094 
	C227.387390,269.433380 224.717697,269.467163 221.723373,269.701660 
z"/>
<path fill="#056665" opacity="1.000000" stroke="none" 
	d="
M409.041351,269.736206 
	C410.062439,281.570709 411.439362,292.912201 412.009216,304.294159 
	C412.487061,313.838074 412.144867,323.431946 411.921112,332.998016 
	C411.820618,337.293365 408.890839,338.978394 404.883972,339.049103 
	C401.062561,339.116486 399.039307,337.256866 398.898804,333.390503 
	C398.583649,324.719635 398.009003,316.049744 397.998749,307.378906 
	C397.990356,300.264496 398.473145,293.135529 399.046021,286.037842 
	C399.829010,276.337402 400.916382,266.661743 401.848877,256.973083 
	C402.400024,251.246414 402.227966,245.792679 397.731079,241.270691 
	C394.046570,237.565598 392.964966,232.557404 393.109467,227.619858 
	C393.472504,215.213531 394.272308,202.819107 394.998138,190.425827 
	C395.057617,189.410019 395.885223,188.439178 397.572174,187.522873 
	C397.572174,197.704041 397.572174,207.885208 397.572174,218.066360 
	C398.321808,218.108276 399.071472,218.150192 399.821106,218.192108 
	C400.213745,213.200455 400.630829,208.210556 400.992279,203.216644 
	C401.360992,198.121582 401.675049,193.022552 402.574371,187.911255 
	C405.186523,197.842773 403.117340,208.078201 404.332520,218.242737 
	C406.927216,215.098190 406.813873,215.096451 406.993896,203.386414 
	C407.074951,198.114685 407.710938,192.851517 409.242432,187.537964 
	C409.492706,192.613876 409.839233,197.687378 409.966003,202.766373 
	C410.090912,207.771362 409.993256,212.781937 409.993256,217.790054 
	C410.727081,217.797729 411.460907,217.805389 412.194702,217.813049 
	C412.722076,207.491837 413.249451,197.170624 413.776825,186.849411 
	C414.136932,186.807953 414.497040,186.766495 414.857147,186.725037 
	C415.557343,191.943146 416.660675,197.145294 416.868317,202.382935 
	C417.227356,211.440155 417.452759,220.546753 416.867981,229.576523 
	C416.619629,233.411514 414.628448,237.364548 412.624084,240.793167 
	C410.400208,244.597290 408.550232,248.132416 408.901031,252.781464 
	C409.313446,258.247101 409.029480,263.765320 409.041351,269.736206 
z"/>
<path fill="#046665" opacity="1.000000" stroke="none" 
	d="
M87.146828,216.938126 
	C87.757965,210.869263 88.030594,204.738708 89.120796,198.757156 
	C89.678986,195.694611 91.700020,192.898682 93.059914,189.982254 
	C95.095177,192.683716 98.316704,195.134476 98.950264,198.132187 
	C101.123833,208.416687 102.837631,218.849335 103.855949,229.310272 
	C104.618858,237.147491 104.307724,245.127991 103.930244,253.018631 
	C103.777176,256.218231 102.744774,259.676514 101.136856,262.451843 
	C95.288712,272.546082 96.802841,283.210724 97.790596,293.965240 
	C99.016663,307.314484 100.176529,320.679718 100.851952,334.063904 
	C101.065788,338.301178 100.823929,343.124115 94.695045,344.344574 
	C90.414360,345.197021 88.360641,343.688293 86.752586,339.874847 
	C83.580879,332.353302 85.708191,324.850739 86.286583,317.343170 
	C87.453461,302.197174 89.317253,287.077484 89.761040,271.913818 
	C90.013832,263.276459 88.031029,254.573715 87.311356,245.085815 
	C87.427475,235.160187 87.287155,226.049164 87.146828,216.938126 
z"/>
<path fill="#242422" opacity="1.000000" stroke="none" 
	d="
M250.474182,250.536438 
	C253.076462,238.262909 255.526443,226.401001 258.015411,214.547272 
	C258.824341,210.694702 260.735779,208.730057 265.206604,208.660339 
	C275.736267,208.496109 275.979401,208.121002 280.108032,217.519897 
	C286.256622,231.517136 292.083923,245.657547 297.876984,259.807037 
	C298.943909,262.412933 300.636139,265.664825 296.721497,267.637878 
	C291.096039,270.473175 287.652679,269.951569 285.115723,265.795593 
	C283.476196,263.109772 281.833832,260.305725 280.918518,257.331268 
	C279.990509,254.315628 278.522644,254.055298 275.753418,254.440750 
	C265.463776,255.872971 265.448792,255.765488 262.946198,265.576447 
	C261.639893,270.697571 259.357910,271.516235 252.393219,270.250397 
	C247.510361,269.362976 247.893738,266.222290 248.443634,262.753387 
	C249.067459,258.818146 249.705292,254.885178 250.474182,250.536438 
z"/>
<path fill="#232321" opacity="1.000000" stroke="none" 
	d="
M338.010315,212.601807 
	C339.479523,212.423782 340.648987,212.338318 341.781494,212.086624 
	C346.111755,211.124207 348.080231,212.827286 347.988647,217.253922 
	C347.902496,221.416687 348.058838,225.583923 348.023193,229.748444 
	C347.993317,233.242920 349.549377,235.056549 353.132751,234.964706 
	C354.298035,234.934845 355.465332,234.988098 356.630829,234.962509 
	C366.801575,234.739334 367.771332,235.850952 367.122620,246.019135 
	C366.921295,249.174240 365.416138,250.047440 362.609985,249.789062 
	C359.631683,249.514832 356.649506,249.191956 353.663208,249.114883 
	C347.886444,248.965836 347.177063,249.776642 346.989594,255.729797 
	C346.879822,259.215668 346.592499,262.695587 346.443573,266.180695 
	C346.324371,268.970093 344.637604,269.683441 342.176605,269.857544 
	C331.772491,270.593597 331.775146,270.631592 332.880798,260.176025 
	C333.942902,250.132401 333.469421,249.585068 323.641663,249.712036 
	C321.148621,249.744232 318.613495,249.606567 316.173462,250.007660 
	C311.272247,250.813278 309.511139,248.180298 308.992218,243.983749 
	C308.709595,241.698425 308.567383,239.395752 308.291473,236.315475 
	C314.217377,235.852402 320.068146,235.178574 325.934448,234.991196 
	C333.394684,234.752914 333.921173,234.417557 333.998474,227.057236 
	C334.033478,223.725479 333.666565,220.325943 334.236115,217.089890 
	C334.525177,215.447311 336.487640,214.099228 338.010315,212.601807 
z"/>
<path fill="#056665" opacity="1.000000" stroke="none" 
	d="
M254.705917,388.106598 
	C251.709259,380.084564 252.328522,372.304138 254.439667,364.515442 
	C254.736389,363.420807 254.558701,362.121277 255.078979,361.181366 
	C255.863678,359.763794 257.069733,358.579407 258.096680,357.295929 
	C259.054199,358.671783 260.684021,359.981476 260.827393,361.437500 
	C261.113953,364.347137 260.656982,367.343781 260.377075,370.292145 
	C259.972382,374.554871 259.517517,378.815247 258.956238,383.059723 
	C258.634949,385.489105 259.170227,388.721771 254.705917,388.106598 
z"/>
<path fill="#0A6968" opacity="1.000000" stroke="none" 
	d="
M237.039581,146.404449 
	C238.726089,139.847687 240.314453,133.705307 242.140411,127.634377 
	C242.434982,126.654991 243.686600,125.589378 244.689240,125.339378 
	C245.276871,125.192871 246.928879,126.567574 246.942093,127.279503 
	C247.123184,137.042191 246.482132,146.665756 240.392929,154.948212 
	C240.062576,155.397552 239.303497,155.531708 237.586655,156.393555 
	C237.369980,152.739349 237.195145,149.790955 237.039581,146.404449 
z"/>
<path fill="#0C6A69" opacity="1.000000" stroke="none" 
	d="
M200.943954,138.052795 
	C201.702164,136.149414 202.435272,134.670151 203.168396,133.190903 
	C204.426468,134.247849 206.211914,135.055893 206.849106,136.405884 
	C209.292496,141.582489 211.630096,146.845703 213.431732,152.267822 
	C214.031937,154.074097 212.906448,156.453766 212.569855,158.571320 
	C210.648315,157.661789 207.780106,157.251068 206.987411,155.746704 
	C204.835663,151.663162 203.524765,147.129913 201.965652,142.744659 
	C201.477478,141.371597 201.260178,139.902206 200.943954,138.052795 
z"/>
<path fill="#0C6A69" opacity="1.000000" stroke="none" 
	d="
M297.263977,374.129272 
	C295.859650,374.275543 294.002289,374.518097 293.629517,373.885620 
	C289.946442,367.636993 286.388702,361.304321 283.117554,354.832672 
	C282.548462,353.706757 283.482849,351.820892 283.722809,350.286011 
	C285.071716,350.929260 286.519165,351.423462 287.753448,352.240021 
	C295.513123,357.373474 296.772644,365.484924 297.263977,374.129272 
z"/>
<path fill="#0C6A69" opacity="1.000000" stroke="none" 
	d="
M315.792908,170.409744 
	C312.093231,172.759079 308.669037,175.140884 304.880035,176.521332 
	C303.207428,177.130692 300.794556,175.708160 298.717773,175.208069 
	C299.468079,173.638123 299.842834,171.653488 301.036163,170.572693 
	C305.338409,166.676147 309.916504,163.084106 314.321716,159.433975 
	C320.386780,162.793381 314.541595,166.786682 315.792908,170.409744 
z"/>
<path fill="#0C6A69" opacity="1.000000" stroke="none" 
	d="
M179.088837,360.839996 
	C179.102921,358.208679 179.058777,355.962341 179.327087,353.753967 
	C179.449814,352.743866 179.929794,351.451050 180.691498,350.901154 
	C183.990768,348.519257 187.265152,345.924927 190.949951,344.342316 
	C192.431564,343.705963 194.944443,345.470764 198.823380,346.746277 
	C192.987900,352.211578 188.329803,356.759155 183.410965,361.004669 
	C182.559692,361.739380 180.603867,361.194366 179.088837,360.839996 
z"/>
<path fill="#0C6A69" opacity="1.000000" stroke="none" 
	d="
M277.740570,146.735458 
	C279.959961,143.685959 281.827911,140.818298 283.948608,138.151611 
	C284.457458,137.511765 286.583710,137.178253 286.648193,137.316910 
	C287.277344,138.669403 288.410950,140.538223 287.921814,141.531952 
	C285.609161,146.230103 282.836945,150.702545 280.211304,155.245483 
	C279.883881,155.811996 279.410309,156.293610 279.078613,156.858139 
	C275.877167,162.307037 274.093750,162.367020 269.892639,156.924927 
	C272.390472,153.655334 274.936157,150.323166 277.740570,146.735458 
z"/>
<path fill="#0A6968" opacity="1.000000" stroke="none" 
	d="
M191.738708,169.848175 
	C187.766891,173.088898 184.370407,171.150375 180.958771,169.503036 
	C172.281342,165.313065 172.266891,165.268997 177.735077,155.977524 
	C182.585831,159.603012 187.386307,163.100800 192.030670,166.794861 
	C192.520874,167.184769 192.093048,168.728882 191.738708,169.848175 
z"/>
<path fill="#0C6A69" opacity="1.000000" stroke="none" 
	d="
M219.309296,373.306549 
	C217.955109,375.405487 216.903275,377.277252 215.577148,378.928772 
	C214.880127,379.796814 213.703201,380.279510 212.742981,380.936218 
	C212.167221,379.745605 210.849854,378.317535 211.142075,377.404816 
	C212.522705,373.092194 214.319229,368.910614 216.024628,364.705505 
	C216.455673,363.642670 217.194473,362.704620 217.625275,361.641724 
	C220.003525,355.774200 221.330521,355.422424 226.720367,359.787109 
	C224.346497,364.125824 221.922104,368.556854 219.309296,373.306549 
z"/>
<path fill="#0A6968" opacity="1.000000" stroke="none" 
	d="
M313.117981,346.120483 
	C309.681000,344.442352 306.464600,343.094177 303.653442,341.157623 
	C302.387634,340.285614 301.930573,338.239685 301.070618,336.660431 
	C307.272095,333.975861 312.908875,334.714996 318.138580,338.027344 
	C319.647522,338.983093 321.730133,341.275146 321.432953,342.390533 
	C320.737305,345.001465 319.448486,348.253082 315.354218,346.912537 
	C314.727936,346.707458 314.120117,346.445953 313.117981,346.120483 
z"/>
<path fill="#3F8A89" opacity="1.000000" stroke="none" 
	d="
M87.069855,217.408585 
	C87.287155,226.049164 87.427475,235.160187 87.359619,244.631149 
	C87.098587,235.953735 87.045738,226.916382 87.069855,217.408585 
z"/>
</svg>