<?xml version="1.0" encoding="UTF-8" standalone="no"?>
<!-- Created with Inkscape (http://www.inkscape.org/) -->

<svg
   xmlns:dc="http://purl.org/dc/elements/1.1/"
   xmlns:cc="http://creativecommons.org/ns#"
   xmlns:rdf="http://www.w3.org/1999/02/22-rdf-syntax-ns#"
   xmlns:svg="http://www.w3.org/2000/svg"
   xmlns="http://www.w3.org/2000/svg"
   xmlns:sodipodi="http://sodipodi.sourceforge.net/DTD/sodipodi-0.dtd"
   xmlns:inkscape="http://www.inkscape.org/namespaces/inkscape"
   width="700mm"
   height="700mm"
   viewBox="0 0 700 700"
   version="1.1"
   id="svg1858"
   inkscape:export-filename="C:\Users\alex\sites\lojas-americanas-logo-0.png"
   inkscape:export-xdpi="148.6263"
   inkscape:export-ydpi="148.6263"
   inkscape:version="0.92.3 (2405546, 2018-03-11)"
   sodipodi:docname="lojas-americanas-logo.svg">
  <defs
     id="defs1852">
    <clipPath
       clipPathUnits="userSpaceOnUse"
       id="clipPath612">
      <path
         d="M 0,0 H 841.89 V 595.276 H 0 Z"
         id="path610"
         inkscape:connector-curvature="0" />
    </clipPath>
    <clipPath
       clipPathUnits="userSpaceOnUse"
       id="clipPath588">
      <path
         d="M 0,0 H 841.89 V 595.276 H 0 Z"
         id="path586"
         inkscape:connector-curvature="0" />
    </clipPath>
    <clipPath
       clipPathUnits="userSpaceOnUse"
       id="clipPath574">
      <path
         d="M 0,0 H 841.89 V 595.276 H 0 Z"
         id="path572"
         inkscape:connector-curvature="0" />
    </clipPath>
    <clipPath
       clipPathUnits="userSpaceOnUse"
       id="clipPath550">
      <path
         d="M 0,0 H 841.89 V 595.276 H 0 Z"
         id="path548"
         inkscape:connector-curvature="0" />
    </clipPath>
    <clipPath
       clipPathUnits="userSpaceOnUse"
       id="clipPath530">
      <path
         d="M 0,0 H 841.89 V 595.276 H 0 Z"
         id="path528"
         inkscape:connector-curvature="0" />
    </clipPath>
  </defs>
  <sodipodi:namedview
     id="base"
     pagecolor="#ffffff"
     bordercolor="#666666"
     borderopacity="1.0"
     inkscape:pageopacity="0.0"
     inkscape:pageshadow="2"
     inkscape:zoom="0.12374369"
     inkscape:cx="1092.1014"
     inkscape:cy="151.59721"
     inkscape:document-units="mm"
     inkscape:current-layer="layer1"
     showgrid="false"
     inkscape:window-width="1600"
     inkscape:window-height="838"
     inkscape:window-x="-8"
     inkscape:window-y="-8"
     inkscape:window-maximized="1" />
  <metadata
     id="metadata1855">
    <rdf:RDF>
      <cc:Work
         rdf:about="">
        <dc:format>image/svg+xml</dc:format>
        <dc:type
           rdf:resource="http://purl.org/dc/dcmitype/StillImage" />
        <dc:title></dc:title>
      </cc:Work>
    </rdf:RDF>
  </metadata>
  <g
     inkscape:label="Camada 1"
     inkscape:groupmode="layer"
     id="layer1"
     transform="translate(0,403)">
    <g
       id="g520"
       transform="matrix(4.6855617,0,0,-4.6855617,73.04262,-74.068625)"
       inkscape:export-xdpi="18.308317"
       inkscape:export-ydpi="18.308317">
      <path
         d="M 0,0 H 1.843 V -7.296 H 6.212 V -8.952 H 0 Z"
         style="fill:#e30613;fill-opacity:1;fill-rule:nonzero;stroke:none"
         id="path522"
         inkscape:connector-curvature="0" />
    </g>
    <g
       transform="matrix(4.6855617,0,0,-4.6855617,-1418.3636,2092.8068)"
       id="g524"
       inkscape:export-xdpi="18.308317"
       inkscape:export-ydpi="18.308317">
      <g
         id="g526"
         clip-path="url(#clipPath530)">
        <g
           id="g532"
           transform="translate(328.7529,454.8633)">
          <path
             d="M 0,0 C 1.569,0 2.515,1.121 2.515,3.113 2.515,5.105 1.569,6.225 0,6.225 -1.556,6.225 -2.49,5.105 -2.49,3.113 -2.49,1.121 -1.556,0 0,0 m 0,7.831 c 2.677,0 4.382,-1.83 4.382,-4.718 0,-2.889 -1.705,-4.719 -4.382,-4.719 -2.677,0 -4.37,1.83 -4.37,4.719 0,2.888 1.693,4.718 4.37,4.718"
             style="fill:#e30613;fill-opacity:1;fill-rule:nonzero;stroke:none"
             id="path534"
             inkscape:connector-curvature="0" />
        </g>
        <g
           id="g536"
           transform="translate(335.2582,456.8432)">
          <path
             d="m 0,0 v -1.083 c 0,-0.623 0.385,-0.959 1.083,-0.959 0.834,0 1.021,0.424 1.021,1.419 V 5.615 H 3.947 V -0.71 c 0,-0.809 -0.025,-1.419 -0.436,-1.954 -0.461,-0.598 -1.295,-0.922 -2.403,-0.922 -1.008,0 -1.793,0.274 -2.316,0.822 -0.56,0.586 -0.572,1.208 -0.572,2.067 V 0 Z"
             style="fill:#e30613;fill-opacity:1;fill-rule:nonzero;stroke:none"
             id="path538"
             inkscape:connector-curvature="0" />
        </g>
      </g>
    </g>
    <g
       id="g540"
       transform="matrix(4.6855617,0,0,-4.6855617,186.83137,-47.818263)"
       inkscape:export-xdpi="18.308317"
       inkscape:export-ydpi="18.308317">
      <path
         d="M 0,0 H 2.49 L 1.245,3.81 Z m 2.303,5.602 3.225,-8.951 h -1.93 l -0.61,1.843 h -3.474 l -0.585,-1.843 h -1.942 l 3.187,8.951 z"
         style="fill:#e30613;fill-opacity:1;fill-rule:nonzero;stroke:none"
         id="path542"
         inkscape:connector-curvature="0" />
    </g>
    <g
       transform="matrix(4.6855617,0,0,-4.6855617,-1418.3636,2092.8068)"
       id="g544"
       inkscape:export-xdpi="18.308317"
       inkscape:export-ydpi="18.308317">
      <g
         id="g546"
         clip-path="url(#clipPath550)">
        <g
           id="g552"
           transform="translate(349.9467,456.2705)">
          <path
             d="m 0,0 c 0.137,-0.996 0.809,-1.444 2.042,-1.444 1.083,0 1.618,0.386 1.618,1.133 0,0.821 -0.747,0.983 -2.39,1.357 -0.722,0.161 -1.395,0.286 -1.98,0.66 -0.634,0.398 -0.971,1.095 -0.971,2.029 0,1.731 1.195,2.702 3.449,2.702 2.104,0 3.324,-1.046 3.386,-2.839 H 3.387 C 3.324,4.47 2.714,4.93 1.606,4.93 0.635,4.93 0.1,4.532 0.1,3.847 0.1,3.001 0.784,3.001 2.266,2.627 3.113,2.415 3.81,2.241 4.37,1.929 5.105,1.519 5.466,0.847 5.466,-0.075 c 0,-1.843 -1.283,-2.938 -3.598,-2.938 -2.279,0 -3.586,1.108 -3.686,3.013 z"
             style="fill:#e30613;fill-opacity:1;fill-rule:nonzero;stroke:none"
             id="path554"
             inkscape:connector-curvature="0" />
        </g>
      </g>
    </g>
    <g
       id="g556"
       transform="matrix(4.6855617,0,0,-4.6855617,275.30469,-47.818263)"
       inkscape:export-xdpi="18.308317"
       inkscape:export-ydpi="18.308317">
      <path
         d="M 0,0 H 2.49 L 1.245,3.81 Z m 2.303,5.602 3.225,-8.951 h -1.93 l -0.61,1.843 h -3.474 l -0.585,-1.843 h -1.942 l 3.187,8.951 z"
         style="fill:#e30613;fill-opacity:1;fill-rule:nonzero;stroke:none"
         id="path558"
         inkscape:connector-curvature="0" />
    </g>
    <g
       id="g560"
       transform="matrix(4.6855617,0,0,-4.6855617,303.21423,-74.068625)"
       inkscape:export-xdpi="18.308317"
       inkscape:export-ydpi="18.308317">
      <path
         d="M 0,0 H 2.727 L 4.507,-6.81 6.262,0 h 2.74 V -8.952 H 7.271 v 7.221 L 5.453,-8.952 H 3.573 L 1.73,-1.731 V -8.952 H 0 Z"
         style="fill:#e30613;fill-opacity:1;fill-rule:nonzero;stroke:none"
         id="path562"
         inkscape:connector-curvature="0" />
    </g>
    <g
       id="g564"
       transform="matrix(4.6855617,0,0,-4.6855617,350.55532,-74.068625)"
       inkscape:export-xdpi="18.308317"
       inkscape:export-ydpi="18.308317">
      <path
         d="M 0,0 H 6.499 V -1.556 H 1.818 V -3.461 H 6.101 V -4.992 H 1.818 V -7.296 H 6.723 V -8.952 H 0 Z"
         style="fill:#e30613;fill-opacity:1;fill-rule:nonzero;stroke:none"
         id="path566"
         inkscape:connector-curvature="0" />
    </g>
    <g
       transform="matrix(4.6855617,0,0,-4.6855617,-1418.3636,2092.8068)"
       id="g568"
       inkscape:export-xdpi="18.308317"
       inkscape:export-ydpi="18.308317">
      <g
         id="g570"
         clip-path="url(#clipPath574)">
        <g
           id="g576"
           transform="translate(389.1635,458.5487)">
          <path
             d="m 0,0 c 0.933,0 1.369,0.361 1.369,1.183 0,0.771 -0.423,1.182 -1.282,1.182 H -2.167 V 0 Z M -4.009,3.909 H 0.336 C 2.278,3.909 3.211,3.1 3.211,1.37 3.211,0.274 2.739,-0.473 1.88,-0.747 2.727,-1.046 2.951,-1.618 2.988,-2.701 L 3.025,-3.76 C 3.037,-4.283 3.037,-4.594 3.373,-4.768 V -5.042 H 1.357 C 1.22,-4.781 1.158,-4.407 1.145,-3.922 L 1.12,-2.975 c -0.037,1.058 -0.311,1.419 -1.332,1.419 h -1.955 v -3.486 h -1.842 z"
             style="fill:#e30613;fill-opacity:1;fill-rule:nonzero;stroke:none"
             id="path578"
             inkscape:connector-curvature="0" />
        </g>
      </g>
    </g>
    <path
       d="m 424.75815,-74.068623 h 8.6355 v 41.945191 h -8.6355 z"
       style="fill:#e30613;fill-opacity:1;fill-rule:nonzero;stroke:none;stroke-width:4.68556118"
       id="path580"
       inkscape:connector-curvature="0"
       inkscape:export-xdpi="18.308317"
       inkscape:export-ydpi="18.308317" />
    <g
       transform="matrix(4.6855617,0,0,-4.6855617,-1418.3636,2092.8068)"
       id="g582"
       inkscape:export-xdpi="18.308317"
       inkscape:export-ydpi="18.308317">
      <g
         id="g584"
         clip-path="url(#clipPath588)">
        <g
           id="g590"
           transform="translate(400.4433,453.2575)">
          <path
             d="m 0,0 c -2.639,0 -4.196,1.718 -4.196,4.719 0,3.05 1.544,4.718 4.358,4.718 2.303,0 3.673,-1.183 3.797,-3.2 H 2.141 C 1.992,7.246 1.307,7.793 0.162,7.793 c -1.619,0 -2.478,-1.07 -2.478,-3.074 0,-1.967 0.884,-3.051 2.415,-3.051 1.121,0 1.856,0.585 2.067,1.656 H 3.972 C 3.835,1.307 2.316,0 0,0"
             style="fill:#e30613;fill-opacity:1;fill-rule:nonzero;stroke:none"
             id="path592"
             inkscape:connector-curvature="0" />
        </g>
      </g>
    </g>
    <g
       id="g594"
       transform="matrix(4.6855617,0,0,-4.6855617,489.72062,-47.818263)"
       inkscape:export-xdpi="18.308317"
       inkscape:export-ydpi="18.308317">
      <path
         d="M 0,0 H 2.49 L 1.245,3.81 Z m 2.303,5.602 3.225,-8.951 h -1.93 l -0.61,1.843 H -0.486 L -1.07,-3.349 h -1.943 l 3.187,8.951 z"
         style="fill:#e30613;fill-opacity:1;fill-rule:nonzero;stroke:none"
         id="path596"
         inkscape:connector-curvature="0" />
    </g>
    <g
       id="g598"
       transform="matrix(4.6855617,0,0,-4.6855617,517.63109,-74.068625)"
       inkscape:export-xdpi="18.308317"
       inkscape:export-ydpi="18.308317">
      <path
         d="M 0,0 H 1.93 L 5.565,-6.15 V 0 H 7.383 V -8.952 H 5.478 l -3.66,6.151 V -8.952 H 0 Z"
         style="fill:#e30613;fill-opacity:1;fill-rule:nonzero;stroke:none"
         id="path600"
         inkscape:connector-curvature="0" />
    </g>
    <g
       id="g602"
       transform="matrix(4.6855617,0,0,-4.6855617,568.31724,-47.818263)"
       inkscape:export-xdpi="18.308317"
       inkscape:export-ydpi="18.308317">
      <path
         d="M 0,0 H 2.49 L 1.245,3.81 Z m 2.304,5.602 3.224,-8.951 h -1.93 l -0.61,1.843 h -3.473 l -0.586,-1.843 h -1.942 l 3.187,8.951 z"
         style="fill:#e30613;fill-opacity:1;fill-rule:nonzero;stroke:none"
         id="path604"
         inkscape:connector-curvature="0" />
    </g>
    <g
       transform="matrix(4.6855617,0,0,-4.6855617,-1418.3636,2092.8068)"
       id="g606"
       inkscape:export-xdpi="18.308317"
       inkscape:export-ydpi="18.308317">
      <g
         id="g608"
         clip-path="url(#clipPath612)">
        <g
           id="g614"
           transform="translate(431.1154,456.2705)">
          <path
             d="m 0,0 c 0.137,-0.996 0.809,-1.444 2.042,-1.444 1.083,0 1.618,0.386 1.618,1.133 0,0.821 -0.747,0.983 -2.391,1.357 -0.721,0.161 -1.394,0.286 -1.979,0.66 -0.635,0.398 -0.971,1.095 -0.971,2.029 0,1.731 1.195,2.702 3.449,2.702 2.104,0 3.324,-1.046 3.386,-2.839 H 3.386 C 3.324,4.47 2.714,4.93 1.606,4.93 0.635,4.93 0.1,4.532 0.1,3.847 0.1,3.001 0.784,3.001 2.266,2.627 3.112,2.415 3.81,2.241 4.37,1.929 5.104,1.519 5.466,0.847 5.466,-0.075 c 0,-1.843 -1.283,-2.938 -3.598,-2.938 -2.279,0 -3.586,1.108 -3.686,3.013 z"
             style="fill:#e30613;fill-opacity:1;fill-rule:nonzero;stroke:none"
             id="path616"
             inkscape:connector-curvature="0" />
        </g>
      </g>
    </g>
    <path
       d="m 72.53046,-21.552893 h 554.93908 v 9.830338 H 72.53046 Z"
       style="fill:#e30613;fill-opacity:1;fill-rule:nonzero;stroke:none;stroke-width:4.68556118"
       id="path618"
       inkscape:connector-curvature="0"
       inkscape:export-xdpi="18.308317"
       inkscape:export-ydpi="18.308317" />
    <path
       d="m 72.53046,-94.277445 h 554.93908 v 9.830336 H 72.53046 Z"
       style="fill:#e30613;fill-opacity:1;fill-rule:nonzero;stroke:none;stroke-width:4.68556118"
       id="path620"
       inkscape:connector-curvature="0"
       inkscape:export-xdpi="18.308317"
       inkscape:export-ydpi="18.308317" />
  </g>
</svg>
